<?xml version="1.0" standalone="no"?>
<!DOCTYPE svg PUBLIC "-//W3C//DTD SVG 20010904//EN"
 "http://www.w3.org/TR/2001/REC-SVG-20010904/DTD/svg10.dtd">
<svg version="1.0" xmlns="http://www.w3.org/2000/svg"
 width="227.000000pt" height="227.000000pt" viewBox="0 0 227.000000 227.000000"
 preserveAspectRatio="xMidYMid meet">
<metadata>
Created by potrace 1.16, written by Peter Selinger 2001-2019
</metadata>
<g transform="translate(0.000000,227.000000) scale(0.100000,-0.100000)"
fill="#000000" stroke="none">
<path d="M680 1645 l0 -145 50 0 50 0 0 145 0 145 -50 0 -50 0 0 -145z"/>
<path d="M1070 1645 l0 -145 95 0 95 0 0 30 c0 29 -1 30 -49 30 -69 0 -78 5
-73 40 4 29 6 30 58 30 51 0 54 1 54 25 0 24 -3 25 -54 25 -36 0 -56 4 -59 13
-8 22 10 41 40 43 84 3 83 3 83 29 0 25 0 25 -95 25 l-95 0 0 -145z"/>
<path d="M1500 1645 l0 -145 30 0 c30 0 30 1 30 54 l0 53 51 7 c46 6 52 10 66
43 17 41 11 87 -14 115 -13 14 -31 18 -90 18 l-73 0 0 -145z"/>
<path d="M1039 1457 l-66 -9 -43 -88 -43 -89 -50 45 c-27 24 -52 44 -56 44 -3
0 -30 -14 -58 -30 l-53 -30 0 -60 0 -60 -108 0 -107 0 -14 -56 c-7 -32 -35
-100 -62 -153 -68 -134 -85 -237 -55 -348 53 -197 212 -323 482 -378 157 -33
214 -51 281 -91 l55 -34 41 29 c54 37 108 55 244 80 198 38 309 88 407 186 87
85 128 173 134 282 6 102 -4 141 -68 277 -29 59 -58 136 -65 170 -7 33 -14 55
-14 49 -1 -10 -28 -13 -100 -13 l-100 0 -3 32 c-3 31 -13 38 -183 136 -99 57
-186 106 -192 109 -10 4 -13 -27 -13 -136 l0 -141 -35 0 -35 0 0 98 c0 88 -3
101 -28 142 l-27 45 -66 -8z m51 -204 c0 -104 3 -300 7 -436 l6 -248 -49 19
-49 20 -5 306 -5 307 -43 -71 c-24 -38 -47 -70 -52 -70 -4 0 -30 18 -58 40
-27 22 -53 40 -56 40 -3 0 -6 -103 -6 -230 0 -141 -4 -230 -10 -230 -5 0 -25
8 -45 17 l-35 17 0 277 0 277 46 27 46 27 52 -51 c61 -60 55 -63 111 56 41 86
46 90 108 92 l37 1 0 -187z m355 67 l80 -46 3 -72 c2 -42 -1 -72 -7 -72 -5 0
-44 18 -85 41 l-76 41 0 -247 0 -247 85 47 85 46 0 -48 0 -49 -131 -75 c-72
-40 -135 -75 -140 -77 -5 -2 -9 182 -9 432 l0 436 58 -32 c31 -18 93 -53 137
-78z"/>
</g>
</svg>
